<?xml version="1.0" standalone="no"?>
<!DOCTYPE svg PUBLIC "-//W3C//DTD SVG 20010904//EN"
 "http://www.w3.org/TR/2001/REC-SVG-20010904/DTD/svg10.dtd">
<svg version="1.0" xmlns="http://www.w3.org/2000/svg"
 width="1280.000000pt" height="1153.000000pt" viewBox="0 0 1280.000000 1153.000000"
 preserveAspectRatio="xMidYMid meet">
<g transform="translate(0.000000,1153.000000) scale(0.100000,-0.100000)"
fill="#000000" stroke="none">
<path d="M12160 11520 c-19 -5 -82 -18 -139 -30 -57 -12 -129 -31 -160 -41
-31 -11 -110 -27 -176 -35 -596 -74 -1090 -285 -1445 -619 -231 -217 -380
-424 -535 -740 -260 -530 -406 -1186 -500 -2240 -8 -93 -35 -467 -60 -830 -49
-727 -57 -827 -86 -1120 -49 -498 -107 -863 -195 -1220 -62 -254 -77 -299
-102 -303 -11 -2 -69 6 -128 18 -661 127 -1541 162 -2409 95 -1603 -125 -3212
-539 -3935 -1013 -105 -69 -248 -210 -280 -275 -44 -94 -37 -181 23 -256 61
-77 39 -77 347 6 725 195 1573 399 2050 492 1103 216 1975 279 2715 195 997
-112 1752 -508 2254 -1182 131 -175 307 -473 299 -507 -2 -10 -25 5 -78 51
-95 83 -294 216 -430 288 -506 266 -1249 455 -2090 530 -553 50 -1245 49
-1790 -4 -891 -86 -1679 -300 -2137 -582 -38 -22 -86 -47 -108 -54 -187 -57
-324 -158 -426 -312 -250 -378 -118 -972 308 -1390 235 -229 506 -368 822
-421 173 -29 211 -27 404 25 274 74 466 270 538 549 26 101 28 284 4 409 -66
353 -310 705 -642 929 -51 34 -92 67 -93 73 0 15 13 18 215 48 998 148 2073
136 3120 -34 325 -53 714 -137 721 -155 3 -6 -11 -38 -31 -71 -190 -315 -108
-815 197 -1201 245 -310 577 -509 957 -572 173 -29 211 -27 404 25 274 74 468
272 537 548 27 106 27 304 1 431 l-19 90 49 82 c280 467 371 1207 233 1893
-101 500 -306 860 -565 989 -46 23 -87 46 -92 50 -4 4 2 46 13 93 29 123 56
280 79 458 54 422 72 768 91 1805 23 1235 56 1744 152 2285 211 1200 728 1813
1610 1911 l108 12 69 -66 c273 -258 547 -296 756 -105 101 92 163 215 201 401
17 83 17 91 1 175 -34 165 -117 291 -236 356 -103 56 -294 88 -391 66z m-8435
-10045 c188 -48 355 -203 431 -400 23 -59 27 -86 28 -170 1 -84 -3 -108 -22
-150 -81 -177 -284 -223 -497 -112 -89 46 -220 182 -268 277 -51 104 -71 188
-64 277 16 213 183 331 392 278z m5390 0 c189 -48 362 -211 434 -408 35 -98
37 -237 3 -312 -81 -177 -284 -223 -497 -112 -90 47 -222 183 -268 277 -50
103 -70 188 -65 275 14 212 184 333 393 280z"/>
<path d="M2730 9673 c-138 -4 -414 -23 -570 -39 -1111 -113 -1788 -428 -2040
-948 -52 -108 -79 -201 -104 -362 -21 -133 -20 -149 9 -340 66 -422 243 -830
584 -1344 350 -529 913 -1178 1528 -1762 329 -313 663 -610 663 -590 0 6 -122
223 -272 483 l-271 472 24 20 c65 53 448 265 663 367 241 115 622 274 686 287
27 5 32 0 73 -63 152 -238 392 -653 596 -1029 71 -132 139 -256 151 -275 l21
-35 -7 35 c-11 58 -121 441 -195 678 -69 222 -136 415 -231 671 -27 73 -46
137 -41 142 13 12 297 94 534 154 305 76 501 116 515 104 27 -22 203 -478 334
-864 l89 -260 0 72 c2 189 -36 586 -81 853 -18 102 -32 203 -32 225 l-1 40
100 17 c235 39 889 108 1023 108 l50 0 16 -47 c21 -64 50 -189 97 -418 l39
-190 -6 275 c-3 151 -7 300 -8 330 l-1 55 55 8 c30 5 299 7 598 5 298 -3 539
-2 535 2 -5 4 -54 28 -111 54 -292 133 -650 242 -986 301 -77 14 -143 30 -147
36 -3 6 -9 37 -13 68 -9 79 -100 523 -136 661 -23 89 -26 117 -17 126 12 11
141 23 502 46 111 7 421 13 743 13 303 0 549 1 545 2 -5 1 -64 11 -133 22
-491 79 -964 127 -1490 152 -150 7 -239 15 -247 22 -6 7 -27 66 -47 132 -48
164 -170 522 -251 742 -37 100 -65 189 -62 197 6 16 -43 17 702 -9 605 -22
1567 -65 1995 -91 58 -3 103 -4 100 -1 -13 13 -909 179 -1490 276 -1897 319
-3364 451 -4580 414z m2602 -580 c63 -71 602 -1063 586 -1078 -4 -4 -157 -11
-340 -16 -183 -5 -432 -16 -553 -24 -121 -8 -227 -15 -236 -15 -11 0 -47 55
-104 158 -161 289 -342 572 -530 827 -100 135 -98 133 -91 150 5 13 93 15 629
15 582 0 625 -1 639 -17z m-1884 -165 c140 -170 296 -369 412 -528 129 -175
330 -472 330 -486 0 -15 10 -13 -300 -55 -129 -17 -338 -49 -464 -70 -127 -21
-239 -39 -251 -39 -17 0 -40 30 -105 137 -165 270 -382 587 -598 873 -68 91
-127 170 -129 177 -6 15 8 19 147 42 207 35 664 87 792 90 l48 1 118 -142z
m-1708 -586 c247 -249 648 -683 674 -729 4 -8 4 -18 0 -23 -5 -4 -76 -24 -159
-44 -232 -58 -557 -148 -808 -226 -126 -39 -232 -68 -237 -65 -9 5 -67 176
-93 275 -42 154 -52 226 -52 390 0 143 3 176 23 245 33 112 96 226 172 308 65
71 166 157 185 157 6 0 138 -129 295 -288z m4334 -634 c54 -84 329 -769 314
-783 -3 -3 -102 -2 -219 2 -241 10 -619 0 -814 -20 -71 -8 -135 -12 -140 -10
-6 2 -34 75 -63 162 -30 87 -85 236 -123 332 -38 95 -65 176 -61 180 14 13
811 130 1079 158 7 0 19 -9 27 -21z m-1533 -367 c107 -187 265 -498 258 -505
-3 -4 -82 -22 -175 -41 -214 -44 -494 -113 -692 -170 -84 -25 -157 -45 -163
-45 -5 0 -26 37 -46 83 -21 45 -92 194 -160 330 -68 136 -123 252 -123 257 0
13 37 23 335 89 427 96 638 140 665 138 21 -2 37 -23 101 -136z m-1534 -468
c195 -263 303 -416 303 -432 0 -14 6 -11 -263 -111 -276 -103 -563 -221 -880
-362 -136 -60 -253 -108 -260 -105 -28 11 -456 813 -441 827 21 18 588 196
1009 315 149 42 281 80 295 85 60 20 59 20 237 -217z"/>
</g>
</svg>
